<?xml version="1.0" encoding="UTF-8" standalone="no"?>
<svg
   id="Layer_1"
   data-name="Layer 1"
   viewBox="0 0 480.00003 149.99982"
   version="1.1"
   sodipodi:docname="aulakh_logo_4.svg"
   width="480"
   height="149.99982"
   inkscape:version="1.4.3 (0d15f75, 2025-12-25)"
   xmlns:inkscape="http://www.inkscape.org/namespaces/inkscape"
   xmlns:sodipodi="http://sodipodi.sourceforge.net/DTD/sodipodi-0.dtd"
   xmlns="http://www.w3.org/2000/svg"
   xmlns:svg="http://www.w3.org/2000/svg"
   xmlns:rdf="http://www.w3.org/1999/02/22-rdf-syntax-ns#"
   xmlns:cc="http://creativecommons.org/ns#"
   xmlns:dc="http://purl.org/dc/elements/1.1/">
  <sodipodi:namedview
     id="namedview16"
     pagecolor="#ffffff"
     bordercolor="#000000"
     borderopacity="0.25"
     inkscape:showpageshadow="2"
     inkscape:pageopacity="0.0"
     inkscape:pagecheckerboard="0"
     inkscape:deskcolor="#d1d1d1"
     inkscape:zoom="1"
     inkscape:cx="239.5"
     inkscape:cy="74.5"
     inkscape:window-width="1920"
     inkscape:window-height="1009"
     inkscape:window-x="-8"
     inkscape:window-y="-8"
     inkscape:window-maximized="1"
     inkscape:current-layer="Layer_1" />
  <defs
     id="defs1">
    <style
       id="style1">.cls-1{fill:#cca8a2;}.cls-2{fill:#087993;}.cls-3{fill:#b8d544;}.cls-4{fill:#ced954;}.cls-5{fill:#ced955;}.cls-6{fill:#ceda55;}.cls-7{fill:#fdfefd;}.cls-8{fill:#fbfdf6;}.cls-9{font-size:10.81px;fill:#0b7993;font-family:Ebrima-Bold, Ebrima;font-weight:700;}</style>
  </defs>
  <title
     id="title1">LOGO new</title>
  <path
     class="cls-4"
     d="m 470.94172,59.702752 h -7.42902 c -12.18627,0 -24.37255,0 -36.53713,0 -2.17224,0 -2.62839,0.630541 -2.60666,2.543904 0,16.828907 0,33.636071 0,50.464974 0,2.06557 -0.62994,2.60914 -2.7153,2.45693 -2.08534,-0.15219 -4.34449,0 -6.73394,0 v -2.17427 q 0,-55.183159 0,-110.344576 c 0,-1.86987846 0.47791,-2.60913276 2.51979,-2.4134478 a 27.261621,27.28718 0 0 0 4.80066,0 c 1.62915,0 2.17224,0.39136992 2.17224,1.9785922 0,4.6529536 0,9.2841636 0,13.9371176 v 32.114077 h 46.44252 V 0.2362662 H 480 V 114.92939 h -9.05828 z"
     id="path4"
     style="stroke-width:2.17326" />
  <path
     class="cls-5"
     d="m 325.53197,115.0816 c -3.12803,0 -6.06057,0 -8.94967,0 -0.52133,0 -1.23818,-0.761 -1.45539,-1.30457 Q 309.43564,99.057173 303.80954,84.293829 c -0.69509,-1.848136 -1.4554,-3.674529 -2.17222,-5.54441 -0.34758,-1.065393 -0.9558,-1.369794 -2.17225,-1.369794 q -18.18165,0 -36.34159,0 a 1.8898495,1.8916213 0 0 0 -2.17225,1.39154 c -4.34447,11.393213 -8.68896,22.764685 -12.88138,34.157895 a 2.8456353,2.8483033 0 0 1 -3.3887,2.17428 c -2.47635,-0.19569 -4.95271,0 -7.84178,0 1.08611,-2.93527 1.99845,-5.50092 2.95425,-8.06657 Q 259.60444,54.614941 279.43701,2.1931158 c 0.26067,-0.6957687 0.60822,-1.67419356 1.19473,-1.91336405 1.34679,-0.56531212 2.17224,0.21742773 2.5198,1.47850855 2.84563,7.7839127 5.77815,15.5460837 8.68897,23.3082527 q 16.2701,43.616003 32.58361,87.253747 c 0.49961,0.82623 0.76028,1.67419 1.10785,2.76134 z M 281.5658,24.783857 c -5.30026,14.024088 -10.42674,27.504608 -15.6184,41.180812 h 31.08475 z"
     id="path5"
     style="stroke-width:2.17326" />
  <path
     class="cls-5"
     d="m 88.475379,115.0816 c -3.301806,0 -6.212609,0 -9.123412,0 -0.499612,0 -1.194731,-0.80448 -1.411955,-1.3698 Q 71.292952,96.491523 64.797955,79.227763 a 2.454632,2.4569334 0 0 0 -2.823913,-1.848138 c -11.686657,0 -23.395033,0 -35.081688,0 a 2.7370234,2.7395895 0 0 0 -3.106305,2.065563 C 19.571896,90.729689 15.227408,101.94896 11.01326,113.23347 a 2.5197993,2.5221617 0 0 1 -2.9542466,1.97859 c -2.5632437,-0.15221 -5.126488,0 -8.0590134,0 0.26066889,-0.86971 0.43444815,-1.522 0.67339464,-2.17428 Q 21.613803,57.593703 42.619379,2.1496303 C 42.945212,1.2364338 43.09727,-0.02464708 44.509227,0.32323731 A 2.9759698,2.9787599 0 0 1 46.247018,2.0626592 Q 66.014409,54.897599 85.716634,107.77603 c 0.868897,2.19601 1.716069,4.5225 2.758745,7.30557 z M 59.910412,66.008154 C 54.783924,52.331949 49.722606,38.829688 44.444061,24.696886 L 28.803925,66.008154 Z"
     id="path6"
     style="stroke-width:2.17326" />
  <path
     class="cls-4"
     d="m 401.49524,115.0816 c -4.10557,0 -7.71149,0 -11.31742,0 a 2.6718561,2.6743611 0 0 1 -1.58573,-1.02192 Q 371.90931,91.947283 355.18306,69.834883 a 64.841388,64.902179 0 0 0 -6.06058,-7.240342 v 2.174276 c 0,15.959196 0,31.940134 0,47.834103 0,1.82639 -0.43445,2.60914 -2.51979,2.45693 -2.08536,-0.1522 -4.34448,0 -6.84257,0 V 0.12755233 c 2.7153,0 5.47406,0 8.23279,0 0.391,0 1.02097,1.19585257 1.04267,1.84813577 0,6.4141181 0,12.8282369 0,19.2423539 v 19.046671 a 4.214147,4.218098 0 0 0 0.41273,2.174276 c 2.0202,-2.348219 4.06211,-4.674695 6.06057,-7.022917 9.64475,-11.349727 19.26778,-22.699454 28.97767,-33.9839533 a 4.214147,4.218098 0 0 1 2.73706,-1.28282359 c 3.43212,-0.15219942 6.88597,0 10.86121,0 L 391.37258,8.0636644 Q 373.21263,29.241125 355.07442,50.353359 a 1.8898495,1.8916213 0 0 0 -0.17379,2.870044 q 15.90079,21.003522 31.73646,42.094011 6.71221,8.871056 13.38101,17.785596 c 0.6082,0.39136 0.89062,1.04365 1.47714,1.97859 z"
     id="path7"
     style="stroke-width:2.17326" />
  <path
     class="cls-4"
     d="m 102.85561,0.2362662 h 9.25375 v 2.3699622 c 0,24.8737326 0,49.7474666 0,74.6211986 a 68.664531,68.728908 0 0 0 1.21645,12.654293 20.896957,20.916548 0 0 0 17.76894,16.80716 17.073812,17.08982 0 0 0 15.55324,-5.58788 25.502106,25.526016 0 0 0 7.19011,-16.568001 c 0.41273,-5.805322 0.54306,-11.632384 0.56479,-17.394221 q 0,-32.309759 0,-64.6195206 c 0,-1.91336404 0.54306,-2.54390448 2.56324,-2.36996229 a 50.330818,50.378006 0 0 0 5.4306,0 c 1.0644,0 1.56401,0.36962713 1.4554,1.39153749 a 7.342174,7.3490576 0 0 0 0,0.9784248 c 0,22.1341426 0,44.2682856 0,66.3806866 a 104.96268,105.06109 0 0 1 -2.45463,25.526016 34.039015,34.070927 0 0 1 -11.55631,18.24219 c -9.05825,7.523 -23.00404,6.39237 -31.51922,0.91319 A 30.411373,30.439884 0 0 1 104.2893,91.947283 110.89288,110.99686 0 0 1 103.00767,74.966179 c -0.15206,-24.221449 0,-48.4429 0,-72.6643494 z"
     id="path8"
     style="stroke-width:2.17326" />
  <path
     class="cls-6"
     d="m 195.45823,103.7971 h 35.10335 v 11.19752 c -0.71683,0 -1.39023,0 -2.06362,0 -13.29411,0 -26.58817,0 -39.88228,0 -2.17224,0 -2.5198,-0.63054 -2.49809,-2.45693 q 0,-55.161414 0,-110.3228316 c 0,-1.89162109 0.62997,-2.36996212 2.49809,-2.17427716 1.86813,0.19568496 4.34448,0 6.86428,0 z"
     id="path9"
     style="stroke-width:2.17326" />
  <path
     d="m 3.8426138,139.0469 v 5.54948 H 0 v -16.10921 h 6.0196988 q 6.4479782,0 6.4479782,5.13382 0,2.42649 -1.855875,3.93181 -1.8439806,1.4941 -4.9371059,1.4941 z m 0,-7.77378 v 5.02151 h 1.5108733 q 3.0693322,0 3.0693322,-2.53883 0,-2.48268 -3.0693322,-2.48268 z m 11.0844202,13.01994 v -2.87583 q 0.927937,0.52798 1.843979,0.78635 0.927937,0.25838 1.748805,0.25838 0.999317,0 1.570355,-0.25838 0.582937,-0.25837 0.582937,-0.78635 0,-0.33703 -0.261728,-0.56169 -0.261725,-0.22468 -0.678107,-0.39319 -0.404485,-0.16851 -0.892247,-0.30331 -0.487763,-0.1348 -0.939835,-0.3033 -0.725694,-0.25838 -1.284837,-0.55047 -0.547244,-0.30331 -0.927937,-0.69649 -0.368795,-0.39318 -0.571039,-0.90993 -0.190347,-0.51676 -0.190347,-1.22448 0,-0.9661 0.440177,-1.6626 0.452073,-0.69649 1.189663,-1.13462 0.749488,-0.44934 1.70122,-0.65155 0.963626,-0.21345 1.998635,-0.21345 0.808972,0 1.641735,0.12357 0.832766,0.11231 1.641738,0.33701 v 2.74103 q -0.713798,-0.39318 -1.534668,-0.58415 -0.808971,-0.2022 -1.594151,-0.2022 -0.368794,0 -0.7019,0.0674 -0.321211,0.0561 -0.571039,0.17974 -0.249829,0.11232 -0.392589,0.30332 -0.142758,0.17974 -0.142758,0.41564 0,0.31455 0.21414,0.53922 0.21414,0.22468 0.559141,0.39318 0.345003,0.1573 0.761385,0.29209 0.428278,0.12356 0.844661,0.25837 0.749489,0.24714 1.356217,0.53922 0.606729,0.29207 1.035008,0.68526 0.440175,0.39319 0.66621,0.92117 0.237932,0.52799 0.237932,1.25817 0,1.02228 -0.475863,1.75248 -0.46397,0.71896 -1.249148,1.17954 -0.773281,0.44935 -1.796392,0.65155 -1.011214,0.21346 -2.105705,0.21346 -2.01053,0 -3.723648,-0.58416 z m 24.242099,-11.20005 -4.948999,12.42454 q -1.784496,4.48227 -5.377278,4.48227 -1.368115,0 -2.248466,-0.29208 v -2.8309 q 0.749487,0.41564 1.629839,0.41564 1.45139,0 2.022428,-1.29188 l 0.642416,-1.42669 -4.948999,-11.4809 h 4.163822 l 2.272258,6.99862 q 0.214141,0.65157 0.333106,1.53904 h 0.04757 q 0.10705,-0.65157 0.392586,-1.51656 l 2.296051,-7.0211 z m 11.869596,11.08772 q -1.272936,0.69649 -3.676059,0.69649 -2.807607,0 -4.544516,-1.60644 -1.736909,-1.60641 -1.736909,-4.14524 0,-2.93202 1.855877,-4.61708 1.867771,-1.69631 4.984688,-1.69631 2.153293,0 3.116919,0.53924 v 3.01063 q -1.177768,-0.83129 -2.629153,-0.83129 -1.617943,0 -2.569674,0.8987 -0.939834,0.88747 -0.939834,2.46019 0,1.52779 0.904144,2.40403 0.90414,0.865 2.486396,0.865 1.403806,0 2.748121,-0.8313 z m 15.283934,0.41565 h -3.747435 v -6.53805 q 0,-2.5276 -1.951054,-2.5276 -0.999315,0 -1.617942,0.70773 -0.618624,0.70772 -0.618624,1.7974 v 6.56052 H 54.628269 V 127.566 h 3.759339 v 7.23453 h 0.04757 q 1.38001,-1.98838 3.74744,-1.98838 4.140029,0 4.140029,4.71819 z m 9.906655,0.28084 q -3.045543,0 -4.794345,-1.60644 -1.736909,-1.61766 -1.736909,-4.38116 0,-2.85337 1.808288,-4.4598 1.808288,-1.61767 4.88952,-1.61767 3.033639,0 4.758652,1.61767 1.725013,1.60643 1.725013,4.2576 0,2.86461 -1.784496,4.5272 -1.772599,1.6626 -4.865723,1.6626 z m 0.09517,-9.34649 q -1.332424,0 -2.070019,0.865 -0.737589,0.86499 -0.737589,2.44897 0,3.31395 2.831401,3.31395 2.700535,0 2.700535,-3.40383 0,-3.22409 -2.724328,-3.22409 z m 13.880128,9.06565 H 86.445287 V 127.566 h 3.759334 z m 10.097014,0.28084 q -3.045553,0 -4.794355,-1.60644 -1.73691,-1.61766 -1.73691,-4.38116 0,-2.85337 1.808286,-4.4598 1.808292,-1.61767 4.889539,-1.61767 3.03365,0 4.75866,1.61767 1.72501,1.60643 1.72501,4.2576 0,2.86461 -1.7845,4.5272 -1.77261,1.6626 -4.86573,1.6626 z m 0.0952,-9.34649 q -1.332425,0 -2.070035,0.865 -0.737588,0.86499 -0.737588,2.44897 0,3.31395 2.831413,3.31395 2.70054,0 2.70054,-3.40383 0,-3.22409 -2.72433,-3.22409 z m 22.06501,7.75129 q 0,3.20162 -1.96295,4.9541 -1.96298,1.7637 -5.68663,1.7637 -2.4626,0 -3.90209,-0.66279 v -2.98819 q 1.87967,1.0335 3.79504,1.0335 1.90345,0 2.95035,-0.95486 1.04691,-0.94363 1.04691,-2.57253 v -0.90993 h -0.0476 q -1.28482,1.9322 -3.79503,1.9322 -2.33173,0 -3.69985,-1.55025 -1.3681,-1.55027 -1.3681,-4.15651 0,-2.92078 1.52277,-4.63953 1.52277,-1.71878 4.00916,-1.71878 2.22468,0 3.33105,1.61767 h 0.0476 v -1.33681 h 3.75934 z m -3.71177,-4.21265 v -0.90995 q 0,-1.08966 -0.69,-1.85356 -0.67812,-0.77513 -1.7726,-0.77513 -1.24914,0 -1.96294,0.92116 -0.71381,0.92117 -0.71381,2.59501 0,1.43793 0.67811,2.28045 0.67812,0.8313 1.85588,0.8313 1.16587,0 1.87967,-0.84253 0.72569,-0.85377 0.72569,-2.24675 z m 9.88286,-7.79625 q -0.95174,0 -1.55846,-0.52797 -0.60673,-0.53923 -0.60673,-1.31436 0,-0.79759 0.60673,-1.30311 0.60672,-0.50552 1.55846,-0.50552 0.96363,0 1.55846,0.50552 0.60673,0.50552 0.60673,1.30311 0,0.80883 -0.60673,1.32558 -0.59483,0.51675 -1.55846,0.51675 z m 1.85588,13.32326 h -3.75934 v -11.50337 h 3.75934 z m 13.52322,-0.41565 q -1.27293,0.69649 -3.67606,0.69649 -2.80761,0 -4.54451,-1.60644 -1.73692,-1.60641 -1.73692,-4.14524 0,-2.93202 1.85589,-4.61708 1.86776,-1.69631 4.98469,-1.69631 2.15329,0 3.11691,0.53924 v 3.01063 q -1.17776,-0.83129 -2.62915,-0.83129 -1.61795,0 -2.56967,0.8987 -0.93983,0.88747 -0.93983,2.46019 0,1.52779 0.90413,2.40403 0.90414,0.865 2.4864,0.865 1.4038,0 2.74812,-0.8313 z m 13.72549,0.41565 h -3.55711 v -1.65136 h -0.0476 q -1.22537,1.9322 -3.62848,1.9322 -1.7726,0 -2.79571,-0.94363 -1.01123,-0.95487 -1.01123,-2.53884 0,-3.34765 4.19952,-3.86441 l 3.30728,-0.41566 q 0,-1.88726 -2.1652,-1.88726 -2.17708,0 -4.14003,1.22447 v -2.67363 q 0.78518,-0.38195 2.14141,-0.67402 1.3681,-0.29209 2.48639,-0.29209 5.21073,0 5.21073,4.90916 z m -3.5333,-4.67325 V 139.148 l -2.21279,0.26961 q -1.83208,0.22468 -1.83208,1.56149 0,0.60663 0.44018,0.99981 0.45207,0.38195 1.21346,0.38195 1.0588,0 1.725,-0.68526 0.66623,-0.6965 0.66623,-1.75247 z m 11.39373,4.67325 h -3.75933 V 127.566 h 3.75933 z m 34.91444,0.25838 q -0.63052,0 -1.20155,-0.1573 -0.55915,-0.15727 -1.07071,-0.42687 -0.49965,-0.26962 -0.95174,-0.62909 -0.45206,-0.37073 -0.85655,-0.78637 -0.44017,0.33701 -1.05878,0.6965 -0.61864,0.35947 -1.40381,0.65156 -0.77329,0.28085 -1.71313,0.46057 -0.93983,0.19098 -2.01052,0.19098 -1.39191,0 -2.58158,-0.31455 -1.17776,-0.31455 -2.03432,-0.9324 -0.85656,-0.62909 -1.34431,-1.55027 -0.47588,-0.92116 -0.47588,-2.13441 0,-0.95487 0.35691,-1.6963 0.36879,-0.75266 0.95174,-1.31435 0.58291,-0.56169 1.32052,-0.9661 0.73757,-0.40441 1.49897,-0.67404 -0.36879,-0.2696 -0.74949,-0.61785 -0.3688,-0.35948 -0.66621,-0.77513 -0.29742,-0.42688 -0.48777,-0.92116 -0.17845,-0.4943 -0.17845,-1.04475 0,-0.88747 0.38069,-1.57272 0.38071,-0.68526 1.05881,-1.15708 0.69,-0.47182 1.64173,-0.71896 0.95174,-0.24715 2.09381,-0.24715 1.0945,0 1.99863,0.25838 0.91605,0.25837 1.57036,0.71896 0.65432,0.46059 1.01121,1.11215 0.3569,0.64033 0.3569,1.41545 0,1.24696 -0.79707,2.16812 -0.78518,0.90993 -2.22467,1.48285 0.57103,0.24714 1.09449,0.56169 0.52345,0.31454 1.02311,0.71897 0.49966,0.40441 0.97552,0.92116 0.47587,0.50553 0.93984,1.16832 0.97553,-1.15708 1.3919,-2.4602 0.42828,-1.31435 0.42828,-2.7298 0,-0.42689 -0.0595,-0.82007 -0.0476,-0.39317 -0.16657,-0.7302 h 3.2002 q 0.13087,0.35949 0.19035,0.6965 0.0595,0.33701 0.0595,0.79759 0,1.08968 -0.24983,2.12318 -0.23793,1.03352 -0.6781,1.97716 -0.44018,0.94362 -1.07069,1.78616 -0.61863,0.84253 -1.36812,1.57272 0.58294,0.57293 1.20155,0.88747 0.61864,0.30332 1.16587,0.30332 0.57104,0 1.16589,-0.11235 0.59481,-0.12357 1.03499,-0.337 v 2.67363 q -0.65431,0.24714 -1.29672,0.35947 -0.63052,0.12357 -1.41571,0.12357 z m -10.07645,-2.68487 q 0.7019,0 1.32052,-0.12356 0.61864,-0.1348 1.16588,-0.34825 0.54724,-0.21345 1.01122,-0.49429 0.47586,-0.28084 0.86845,-0.58416 -0.60674,-0.89871 -1.20157,-1.51656 -0.59482,-0.6291 -1.17775,-1.0672 -0.58294,-0.44936 -1.16588,-0.75266 -0.57104,-0.30332 -1.15398,-0.55046 -0.48775,0.22467 -0.93983,0.50552 -0.44017,0.26961 -0.78517,0.64032 -0.34501,0.35949 -0.55915,0.8313 -0.20224,0.46058 -0.20224,1.06721 0,0.53922 0.20224,0.97734 0.20224,0.43811 0.57104,0.75265 0.3807,0.31456 0.89225,0.49429 0.52345,0.16853 1.15397,0.16853 z m 2.20088,-10.20027 q 0,-0.32577 -0.13087,-0.58415 -0.13086,-0.25838 -0.3569,-0.42689 -0.22603,-0.17973 -0.51156,-0.2696 -0.28551,-0.10113 -0.60672,-0.10113 -0.3926,0 -0.7257,0.11235 -0.32121,0.11232 -0.57103,0.30331 -0.23794,0.19096 -0.3688,0.46058 -0.13088,0.25837 -0.13088,0.56169 0,0.6291 0.4164,1.15707 0.41637,0.52799 1.035,0.85378 0.39258,-0.1348 0.73759,-0.31455 0.3569,-0.17975 0.61862,-0.42689 0.27362,-0.24714 0.42829,-0.57292 0.16657,-0.32577 0.16657,-0.75267 z m 40.89847,12.05383 q -1.86779,0.85377 -4.87765,0.85377 -3.92587,0 -6.17434,-2.17935 -2.24845,-2.17934 -2.24845,-5.80786 0,-3.86441 2.52206,-6.26843 2.53399,-2.40403 6.56696,-2.40403 2.4983,0 4.21142,0.59539 v 3.4937 q -1.71312,-0.96611 -3.9021,-0.96611 -2.40312,0 -3.87832,1.42669 -1.47519,1.42668 -1.47519,3.86441 0,2.33663 1.39194,3.72962 1.39187,1.38175 3.74743,1.38175 2.24845,0 4.11624,-1.0335 z m 9.53783,0.85377 q -3.04552,0 -4.79431,-1.60644 -1.73692,-1.61766 -1.73692,-4.38116 0,-2.85337 1.80828,-4.4598 1.80828,-1.61767 4.88954,-1.61767 3.03362,0 4.75866,1.61767 1.72497,1.60643 1.72497,4.2576 0,2.86461 -1.78449,4.5272 -1.77261,1.6626 -4.86573,1.6626 z m 0.0952,-9.34649 q -1.33242,0 -2.07002,0.865 -0.73761,0.86499 -0.73761,2.44897 0,3.31395 2.8314,3.31395 2.70054,0 2.70054,-3.40383 0,-3.22409 -2.72431,-3.22409 z m 21.69621,9.06565 h -3.74754 v -1.75247 h -0.0596 q -1.3919,2.03331 -3.72363,2.03331 -4.23522,0 -4.23522,-4.84176 v -6.94245 h 3.74746 v 6.62791 q 0,2.43773 2.04621,2.43773 1.01123,0 1.61793,-0.6628 0.60674,-0.67402 0.60674,-1.81986 v -6.58298 h 3.74743 z m 16.05722,0 h -3.74745 v -6.39201 q 0,-2.67364 -2.02242,-2.67364 -0.97555,0 -1.60606,0.70773 -0.63054,0.70772 -0.63054,1.7974 v 6.56052 h -3.75932 v -11.50337 h 3.75932 v 1.81987 h 0.0476 q 1.34434,-2.10073 3.91399,-2.10073 4.04487,0 4.04487,4.74065 z m 3.30408,-0.30332 v -2.87583 q 0.92797,0.52798 1.84399,0.78635 0.92793,0.25838 1.74879,0.25838 0.99933,0 1.57038,-0.25838 0.58292,-0.25837 0.58292,-0.78635 0,-0.33703 -0.26174,-0.56169 -0.2617,-0.22468 -0.67809,-0.39319 -0.40448,-0.16851 -0.89227,-0.30331 -0.48777,-0.1348 -0.9398,-0.3033 -0.72571,-0.25838 -1.28485,-0.55047 -0.54725,-0.30331 -0.92794,-0.69649 -0.36881,-0.39318 -0.57105,-0.90993 -0.19044,-0.51676 -0.19044,-1.22448 0,-0.9661 0.44017,-1.6626 0.45208,-0.69649 1.18967,-1.13462 0.74947,-0.44934 1.70123,-0.65155 0.96359,-0.21345 1.9986,-0.21345 0.80898,0 1.64173,0.12357 0.83278,0.11231 1.64176,0.33701 v 2.74103 q -0.71381,-0.39318 -1.53467,-0.58415 -0.80897,-0.2022 -1.59416,-0.2022 -0.36881,0 -0.7019,0.0674 -0.32119,0.0561 -0.57103,0.17974 -0.24982,0.11232 -0.3926,0.30332 -0.14273,0.17974 -0.14273,0.41564 0,0.31455 0.2141,0.53922 0.21411,0.22468 0.55912,0.39318 0.34502,0.1573 0.76139,0.29209 0.42829,0.12356 0.84466,0.25837 0.74951,0.24714 1.35622,0.53922 0.60672,0.29207 1.03501,0.68526 0.44018,0.39319 0.6662,0.92117 0.23794,0.52799 0.23794,1.25817 0,1.02228 -0.47587,1.75248 -0.46396,0.71896 -1.24912,1.17954 -0.7733,0.44935 -1.79643,0.65155 -1.01119,0.21346 -2.10568,0.21346 -2.01056,0 -3.72364,-0.58416 z m 23.58784,-4.43732 h -7.94698 q 0.19045,2.50512 3.34295,2.50512 2.01051,0 3.53333,-0.89871 v 2.5613 q -1.68939,0.85377 -4.38989,0.85377 -2.95039,0 -4.58019,-1.53903 -1.62985,-1.55025 -1.62985,-4.31376 0,-2.86461 1.76068,-4.53845 1.76072,-1.67383 4.33037,-1.67383 2.66488,0 4.11624,1.4941 1.46334,1.49409 1.46334,4.05539 z m -3.48577,-2.17936 q 0,-2.47144 -2.11757,-2.47144 -0.90416,0 -1.57036,0.70774 -0.65432,0.70772 -0.79708,1.7637 z m 10.60854,6.92 h -3.75931 V 127.566 h 3.75931 z m 8.05078,0 h -3.75933 V 127.566 h 3.75933 z m 6.19491,-13.32326 q -0.95173,0 -1.55842,-0.52797 -0.60675,-0.53923 -0.60675,-1.31436 0,-0.79759 0.60675,-1.30311 0.60669,-0.50552 1.55842,-0.50552 0.96362,0 1.55847,0.50552 0.60674,0.50552 0.60674,1.30311 0,0.80883 -0.60674,1.32558 -0.59485,0.51675 -1.55847,0.51675 z m 1.8559,13.32326 h -3.75935 v -11.50337 h 3.75935 z m 16.05715,0 h -3.7474 v -6.39201 q 0,-2.67364 -2.02244,-2.67364 -0.97551,0 -1.60602,0.70773 -0.63054,0.70772 -0.63054,1.7974 v 6.56052 h -3.75935 v -11.50337 h 3.75935 v 1.81987 h 0.0475 q 1.34432,-2.10073 3.91402,-2.10073 4.04483,0 4.04483,4.74065 z m 16.04536,-1.31436 q 0,3.20162 -1.96296,4.9541 -1.96293,1.7637 -5.6866,1.7637 -2.46261,0 -3.90212,-0.66279 v -2.98819 q 1.8797,1.0335 3.79501,1.0335 1.9035,0 2.9504,-0.95486 1.04691,-0.94363 1.04691,-2.57253 v -0.90993 h -0.0475 q -1.28486,1.9322 -3.79504,1.9322 -2.33177,0 -3.69988,-1.55025 -1.36812,-1.55027 -1.36812,-4.15651 0,-2.92078 1.5228,-4.63953 1.52279,-1.71878 4.00917,-1.71878 2.22464,0 3.33107,1.61767 h 0.0475 v -1.33681 h 3.75933 z m -3.71176,-4.21265 v -0.90995 q 0,-1.08966 -0.68997,-1.85356 -0.67815,-0.77513 -1.77259,-0.77513 -1.24918,0 -1.96296,0.92116 -0.71382,0.92117 -0.71382,2.59501 0,1.43793 0.67809,2.28045 0.67815,0.8313 1.8559,0.8313 1.16586,0 1.87968,-0.84253 0.72567,-0.85377 0.72567,-2.24675 z m 22.17317,4.90915 v -3.59481 q 1.03502,0.82007 2.24849,1.23572 1.21346,0.40442 2.45069,0.40442 0.7257,0 1.26101,-0.12356 0.54729,-0.12357 0.90419,-0.33701 0.36879,-0.22469 0.54723,-0.51677 0.17844,-0.30331 0.17844,-0.65155 0,-0.47182 -0.28551,-0.84254 -0.28556,-0.37071 -0.78519,-0.68525 -0.48776,-0.31455 -1.16588,-0.60663 -0.67808,-0.29207 -1.46327,-0.59538 -1.99865,-0.78637 -2.98606,-1.92097 -0.97554,-1.13463 -0.97554,-2.74104 0,-1.25819 0.53535,-2.15689 0.53535,-0.90993 1.45142,-1.49409 0.92788,-0.58416 2.14136,-0.85377 1.21346,-0.28085 2.5697,-0.28085 1.33244,0 2.35553,0.1573 1.03498,0.14605 1.90346,0.46059 v 3.35889 q -0.42829,-0.28085 -0.93984,-0.49429 -0.49969,-0.21345 -1.03502,-0.34825 -0.53536,-0.14604 -1.07067,-0.21345 -0.5235,-0.0674 -0.99936,-0.0674 -0.65429,0 -1.18961,0.12357 -0.53538,0.11231 -0.90413,0.32578 -0.36882,0.21344 -0.57108,0.51675 -0.20226,0.29208 -0.20226,0.66279 0,0.40442 0.22604,0.73019 0.22603,0.31455 0.64242,0.60663 0.41641,0.28084 1.01124,0.56168 0.59483,0.26962 1.34429,0.5617 1.02312,0.40441 1.8321,0.865 0.82088,0.44935 1.40381,1.02227 0.58293,0.57292 0.89226,1.31435 0.3093,0.7302 0.3093,1.70752 0,1.34807 -0.54723,2.26923 -0.53535,0.90993 -1.46331,1.48286 -0.92797,0.56168 -2.16517,0.80882 -1.22536,0.24715 -2.59346,0.24715 -1.40379,0 -2.67678,-0.22467 -1.26103,-0.22468 -2.18896,-0.67403 z m 26.14556,-4.12278 h -7.94695 q 0.19047,2.50512 3.34296,2.50512 2.01054,0 3.5333,-0.89871 v 2.5613 q -1.68933,0.85377 -4.38988,0.85377 -2.95036,0 -4.58019,-1.53903 -1.62983,-1.55025 -1.62983,-4.31376 0,-2.86461 1.76072,-4.53845 1.76069,-1.67383 4.33035,-1.67383 2.66483,0 4.11624,1.4941 1.46328,1.49409 1.46328,4.05539 z m -3.48571,-2.17936 q 0,-2.47144 -2.11759,-2.47144 -0.90414,0 -1.57038,0.70774 -0.65429,0.70772 -0.79702,1.7637 z m 14.79616,-1.38175 q -0.67814,-0.34825 -1.58225,-0.34825 -1.22537,0 -1.91536,0.85376 -0.68999,0.84253 -0.68999,2.30293 v 5.49331 h -3.75935 v -11.50337 h 3.75935 v 2.13441 h 0.0476 q 0.89225,-2.33663 3.21208,-2.33663 0.5948,0 0.92791,0.13481 z m 14.47497,-3.20162 -4.53259,11.50337 h -4.28284 l -4.31845,-11.50337 h 4.02103 l 2.1176,7.08849 q 0.3569,1.20203 0.4164,2.04455 h 0.0476 q 0.0835,-0.7976 0.44018,-1.97714 l 2.16515,-7.1559 z m 4.63644,-1.81989 q -0.95174,0 -1.55846,-0.52797 -0.60677,-0.53923 -0.60677,-1.31436 0,-0.79759 0.60677,-1.30311 0.60672,-0.50552 1.55846,-0.50552 0.96359,0 1.55847,0.50552 0.60669,0.50552 0.60669,1.30311 0,0.80883 -0.60669,1.32558 -0.59488,0.51675 -1.55847,0.51675 z m 1.85588,13.32326 h -3.75934 v -11.50337 h 3.75934 z m 13.52325,-0.41565 q -1.27295,0.69649 -3.67607,0.69649 -2.80763,0 -4.54453,-1.60644 -1.73689,-1.60641 -1.73689,-4.14524 0,-2.93202 1.85587,-4.61708 1.86777,-1.69631 4.98464,-1.69631 2.15336,0 3.11698,0.53924 v 3.01063 q -1.17776,-0.83129 -2.62915,-0.83129 -1.61796,0 -2.56969,0.8987 -0.93983,0.88747 -0.93983,2.46019 0,1.52779 0.90415,2.40403 0.90415,0.865 2.48639,0.865 1.40379,0 2.74813,-0.8313 z m 14.53444,-4.32499 h -7.94698 q 0.19026,2.50512 3.34297,2.50512 2.01053,0 3.53329,-0.89871 v 2.5613 q -1.68928,0.85377 -4.38987,0.85377 -2.95037,0 -4.58016,-1.53903 -1.62987,-1.55025 -1.62987,-4.31376 0,-2.86461 1.76069,-4.53845 1.76075,-1.67383 4.33036,-1.67383 2.66488,0 4.11625,1.4941 1.46332,1.49409 1.46332,4.05539 z m -3.4857,-2.17936 q 0,-2.47144 -2.11764,-2.47144 -0.90416,0 -1.57037,0.70774 -0.65432,0.70772 -0.79706,1.7637 z m 6.05211,6.61668 v -2.87583 q 0.92792,0.52798 1.84397,0.78635 0.92796,0.25838 1.74881,0.25838 0.99929,0 1.57035,-0.25838 0.58292,-0.25837 0.58292,-0.78635 0,-0.33703 -0.26171,-0.56169 -0.26173,-0.22468 -0.67812,-0.39319 -0.40446,-0.16851 -0.89226,-0.30331 -0.48774,-0.1348 -0.93981,-0.3033 -0.7257,-0.25838 -1.28483,-0.55047 -0.54726,-0.30331 -0.92792,-0.69649 -0.36882,-0.39318 -0.57108,-0.90993 -0.19041,-0.51676 -0.19041,-1.22448 0,-0.9661 0.44013,-1.6626 0.45209,-0.69649 1.1897,-1.13462 0.74945,-0.44934 1.70121,-0.65155 0.96362,-0.21345 1.99864,-0.21345 0.80898,0 1.64171,0.12357 0.83277,0.11231 1.64173,0.33701 v 2.74103 q -0.7138,-0.39318 -1.53466,-0.58415 -0.80898,-0.2022 -1.59416,-0.2022 -0.36879,0 -0.70187,0.0674 -0.32124,0.0561 -0.57105,0.17974 -0.2498,0.11232 -0.39259,0.30332 -0.14274,0.17974 -0.14274,0.41564 0,0.31455 0.21411,0.53922 0.21409,0.22468 0.55911,0.39318 0.34503,0.1573 0.76143,0.29209 0.42824,0.12356 0.84465,0.25837 0.74951,0.24714 1.35616,0.53922 0.60676,0.29207 1.03503,0.68526 0.44016,0.39319 0.66624,0.92117 0.23796,0.52799 0.23796,1.25817 0,1.02228 -0.47589,1.75248 -0.46401,0.71896 -1.24916,1.17954 -0.77328,0.44935 -1.7964,0.65155 -1.0112,0.21346 -2.10568,0.21346 -2.01056,0 -3.72364,-0.58416 z"
     id="text16"
     style="font-weight:700;font-size:10.81px;font-family:Ebrima-Bold, Ebrima;letter-spacing:0.5px;word-spacing:3px;fill:#0b7993;stroke-width:4.22702"
     class="cls-9"
     aria-label="Psychological &amp; Counselling Services" />
  <metadata
     id="metadata16">
    <rdf:RDF>
      <cc:Work
         rdf:about="">
        <dc:title>LOGO new</dc:title>
      </cc:Work>
    </rdf:RDF>
  </metadata>
</svg>
