<svg id="Layer_1" data-name="Layer 1" xmlns="http://www.w3.org/2000/svg" viewBox="0 0 308.58 71.54"><defs><style>.cls-1{fill:#cca8a2;}.cls-2{fill:#087993;}.cls-3{fill:#b8d544;}.cls-4{fill:#ced954;}.cls-5{fill:#ced955;}.cls-6{fill:#ceda55;}.cls-7{fill:#fdfefd;}.cls-8{fill:#fbfdf6;}.cls-9{font-size:10.81px;fill:#0b7993;font-family:Ebrima-Bold, Ebrima;font-weight:700;}</style></defs><title>LOGO new</title><path class="cls-1" d="M92.45,331.57c-1.66,2.05-3.31,4.12-5,6.16-.47.56-1,1.06-1.61,1.64l-2.7-18.09c-.12,0-.7-4.9-.81-4.89,1.1,9.16,1.56,23.23.48,32.37l-.27.12c-1.55-2.84-3.22-5.63-4.62-8.54s-2.5-5.91-3.74-8.86c-.08,0-1-2.46-1-2.44,1.07,3.56,2.77,9.68,4,13.18,1.37,3.71,3.13,7.29,4.61,11a4.72,4.72,0,0,1,.05,2.45c-.53,2.95-1.14,5.9-1.76,8.84a1.13,1.13,0,0,1-.73.7c-3.21,0-6.41,0-9.7,0V297H97v68.17H85.79c.06-1.26.12-2.5.17-3.74.12-3.09.32-6.19.32-9.28s-.25-6.3-.32-9.45a3,3,0,0,1,.53-1.55c1.88-2.9,3.81-5.77,5.71-8.65.16-.25.3-.54.53-.84,0-.06.67-1.6.68-1.66S92.49,331.53,92.45,331.57Zm.28-.43,0,0v-.06Zm.22-.31,0-.05h0Z" transform="translate(-69.68 -296.96)"/><path class="cls-2" d="M126,365.18H114.59c.07-1.15.13-2.25.21-3.35a153.91,153.91,0,0,0,0-19.21,2.57,2.57,0,0,1,.5-1.45c1.89-2.9,3.82-5.76,5.73-8.64a16.23,16.23,0,0,0,1.34-2.37,75.85,75.85,0,0,1-7.68,9.22L112,321l-.09-.31c-.13-.45-.28-1.27-.38-1.27a135.66,135.66,0,0,1,.11,29.61c-3.69-5.63-7.09-13.69-9.29-19.79.1.51.82,3.28.94,3.79s.25,1.05.39,1.58a90.42,90.42,0,0,0,7,18.55,1.85,1.85,0,0,1,.25,1c-.65,3.67-1.34,7.33-2,11H98.47V297H126Zm-5.83-28.64-1-.08a3.55,3.55,0,0,0,5,1.19,3.45,3.45,0,0,0-4.63-1.57l.7.32ZM108.9,314.36l2.52,3c.81-5.07-2.49-9.12-7.67-9.94-1.35,5.14,2.38,10.94,7.09,10.86l-2.16-3.74Zm-3.69,21.71c3.12-.68,4.77-2.86,4.07-5.2-2.12.1-4.65,1.87-4.12,4.72l.88-1.06.1.09Z" transform="translate(-69.68 -296.96)"/><path class="cls-3" d="M137.62,365.19H127.34V297h27.47v68.19H143.45c.08-1.38.21-2.75.21-4.12,0-5.56,0-11.12,0-16.67,0-.64-.1-1.27-.05-1.9a2.85,2.85,0,0,1,.41-1.22c1.93-2.94,3.89-5.86,5.83-8.79.15-.23,2.29-3.69,2.44-4-2.17,2.71-6.46,8.43-8.62,11l-.33-.14c-.58-5.62-1.39-14.12-2.65-19.63.17,4.36.6,11.61.58,16s-.37,8.74-.74,13.12c-3.74-5.43-7.37-14.07-9.57-20.15.08.36.8,3.29.88,3.66s.38,1.11.48,1.52a87.83,87.83,0,0,0,7.11,19.09,3.12,3.12,0,0,1,.2,2.18c-.62,3.09-1.21,6.2-1.81,9.3C137.79,364.66,137.7,364.91,137.62,365.19Zm-3.42-29.27a4.13,4.13,0,0,0,3.91-5.09,4.68,4.68,0,0,0-3.85,2.47,13.19,13.19,0,0,0-.59,2.09l1-.5c-.2.46-.34.75-.47,1,0,0-.05,0-.06.05s0,0,0,0Zm-2.1-9v1.56c2.47.26,4.31-1,4.57-3.08a4.13,4.13,0,0,0-4,1.11,3.68,3.68,0,0,1-.59.42c.11-.28.2-.56.32-.83a4.49,4.49,0,0,0-1.5-5.63c-2.13,2.12-2.23,4.84-.19,6.74l.09-1.35H131l.34,1.7Zm11.82-12.59.13.15-3,3.93a8.82,8.82,0,0,0,8.49-10.07c-5.33.32-9.11,4-8.85,8.9Zm-2.79-2.09c4-4,3.66-9.41-.72-12.86-3.77,3.94-3.88,9.66-.3,12.16l.42-5.08.12,0Zm-8.53-4.8c-1.32,5.2,1.4,9.62,7.11,11l-2.31-4.1.23-.16,2.68,3.31C141,311.51,137.06,308.16,132.6,307.42Zm19.57,20.22a3.24,3.24,0,0,0-1.11-4.93,3.31,3.31,0,0,0,.7,5.16v-1.52h.09Zm-4.11,8.89c1.15,1.75,3,2.15,5,1.12a3.3,3.3,0,0,0-4.51-1.54l.46.33Z" transform="translate(-69.68 -296.96)"/><path class="cls-4" d="M373.29,325.26h-3.42c-5.61,0-11.22,0-16.82,0-1,0-1.21.29-1.2,1.17,0,7.74,0,15.47,0,23.21,0,.95-.29,1.2-1.25,1.13s-2,0-3.1,0v-1q0-25.38,0-50.75c0-.86.22-1.2,1.16-1.11a12.55,12.55,0,0,0,2.21,0c.75,0,1,.18,1,.91,0,2.14,0,4.27,0,6.41V320h21.38V297.91h4.21v52.75h-4.17Z" transform="translate(-69.68 -296.96)"/><path class="cls-5" d="M306.35,350.73c-1.44,0-2.79,0-4.12,0-.24,0-.57-.35-.67-.6q-2.62-6.77-5.21-13.56c-.32-.85-.67-1.69-1-2.55-.16-.49-.44-.63-1-.63q-8.37,0-16.73,0a.87.87,0,0,0-1,.64c-2,5.24-4,10.47-5.93,15.71a1.31,1.31,0,0,1-1.56,1c-1.14-.09-2.28,0-3.61,0,.5-1.35.92-2.53,1.36-3.71q9.12-24.11,18.25-48.22c.12-.32.28-.77.55-.88.62-.26,1,.1,1.16.68,1.31,3.58,2.66,7.15,4,10.72q7.49,20.06,15,40.13C306.07,349.84,306.19,350.23,306.35,350.73ZM286.11,309.2c-2.44,6.45-4.8,12.65-7.19,18.94h14.31Z" transform="translate(-69.68 -296.96)"/><path class="cls-5" d="M197.22,350.73c-1.52,0-2.86,0-4.2,0-.23,0-.55-.37-.65-.63q-3.06-7.92-6.05-15.86a1.13,1.13,0,0,0-1.3-.85c-5.38,0-10.77,0-16.15,0a1.26,1.26,0,0,0-1.43.95c-1.94,5.19-3.94,10.35-5.88,15.54a1.16,1.16,0,0,1-1.36.91c-1.18-.07-2.36,0-3.71,0,.12-.4.2-.7.31-1q9.64-25.5,19.31-51c.15-.42.22-1,.87-.84a1.37,1.37,0,0,1,.8.8q9.1,24.3,18.17,48.62C196.35,348.38,196.74,349.45,197.22,350.73Zm-13.15-22.57c-2.36-6.29-4.69-12.5-7.12-19l-7.2,19Z" transform="translate(-69.68 -296.96)"/><path class="cls-4" d="M341.32,350.73c-1.89,0-3.55,0-5.21,0a1.23,1.23,0,0,1-.73-.47Q327.7,340.09,320,329.92a29.85,29.85,0,0,0-2.79-3.33v1c0,7.34,0,14.69,0,22,0,.84-.2,1.2-1.16,1.13s-2,0-3.15,0V297.86c1.25,0,2.52,0,3.79,0,.18,0,.47.55.48.85,0,2.95,0,5.9,0,8.85v8.76a1.94,1.94,0,0,0,.19,1c.93-1.08,1.87-2.15,2.79-3.23,4.44-5.22,8.87-10.44,13.34-15.63a1.94,1.94,0,0,1,1.26-.59c1.58-.07,3.17,0,5,0l-3.09,3.64q-8.36,9.74-16.71,19.45a.87.87,0,0,0-.08,1.32q7.32,9.66,14.61,19.36,3.09,4.08,6.16,8.18C340.92,350,341.05,350.3,341.32,350.73Z" transform="translate(-69.68 -296.96)"/><path class="cls-4" d="M203.84,297.91h4.26V299c0,11.44,0,22.88,0,34.32a31.61,31.61,0,0,0,.56,5.82,9.62,9.62,0,0,0,8.18,7.73A7.86,7.86,0,0,0,224,344.3a11.74,11.74,0,0,0,3.31-7.62c.19-2.67.25-5.35.26-8q0-14.86,0-29.72c0-.88.25-1.17,1.18-1.09a23.17,23.17,0,0,0,2.5,0c.49,0,.72.17.67.64a3.38,3.38,0,0,0,0,.45c0,10.18,0,20.36,0,30.53a48.32,48.32,0,0,1-1.13,11.74,15.67,15.67,0,0,1-5.32,8.39c-4.17,3.46-10.59,2.94-14.51.42a14,14,0,0,1-6.46-9.95,51.05,51.05,0,0,1-.59-7.81c-.07-11.14,0-22.28,0-33.42Z" transform="translate(-69.68 -296.96)"/><path class="cls-6" d="M246.47,345.54h16.16v5.15c-.33,0-.64,0-.95,0-6.12,0-12.24,0-18.36,0-1,0-1.16-.29-1.15-1.13q0-25.37,0-50.74c0-.87.29-1.09,1.15-1s2,0,3.16,0Z" transform="translate(-69.68 -296.96)"/><polygon class="cls-7" points="23.05 34.18 23.11 34.16 23.1 34.22 23.05 34.18"/><path class="cls-7" d="M92.45,331.57l.11-.11,0,.18Z" transform="translate(-69.68 -296.96)"/><polygon class="cls-7" points="23.27 33.87 23.26 33.81 23.31 33.82 23.27 33.87"/><path class="cls-8" d="M134.2,335.92l0,.1s0,0,0,0,0,0,.06-.05Z" transform="translate(-69.68 -296.96)"/><path class="cls-2" d="M108.68,314.55l-.17-.25.39.06Z" transform="translate(-69.68 -296.96)"/><path class="cls-2" d="M120.24,336.4l.45.12,0,.12-.54-.1Z" transform="translate(-69.68 -296.96)"/><path class="cls-3" d="M144.42,314.09l0-.13h.12l-.11.11Z" transform="translate(-69.68 -296.96)"/><path class="cls-3" d="M144.22,314.26l-.17.2-.13-.15.21-.13Z" transform="translate(-69.68 -296.96)"/><path class="cls-3" d="M144.4,314.07l-.18.19-.09-.08.29-.09Z" transform="translate(-69.68 -296.96)"/><text class="cls-9" transform="translate(86.8 68.09) scale(1.06 1)">Psychological &amp; Counselling Services Inc.</text></svg>