<?xml version="1.0" encoding="UTF-8" standalone="no"?>
<svg
   id="Layer_1"
   data-name="Layer 1"
   viewBox="0 0 60.000003 150"
   version="1.1"
   sodipodi:docname="aulakh_logo_3.svg"
   width="60"
   height="150"
   inkscape:version="1.4.3 (0d15f75, 2025-12-25)"
   xmlns:inkscape="http://www.inkscape.org/namespaces/inkscape"
   xmlns:sodipodi="http://sodipodi.sourceforge.net/DTD/sodipodi-0.dtd"
   xmlns="http://www.w3.org/2000/svg"
   xmlns:svg="http://www.w3.org/2000/svg"
   xmlns:rdf="http://www.w3.org/1999/02/22-rdf-syntax-ns#"
   xmlns:cc="http://creativecommons.org/ns#"
   xmlns:dc="http://purl.org/dc/elements/1.1/">
  <sodipodi:namedview
     id="namedview16"
     pagecolor="#ffffff"
     bordercolor="#000000"
     borderopacity="0.25"
     inkscape:showpageshadow="2"
     inkscape:pageopacity="0.0"
     inkscape:pagecheckerboard="0"
     inkscape:deskcolor="#d1d1d1"
     inkscape:zoom="1"
     inkscape:cx="29.5"
     inkscape:cy="74.5"
     inkscape:window-width="1920"
     inkscape:window-height="1009"
     inkscape:window-x="-8"
     inkscape:window-y="-8"
     inkscape:window-maximized="1"
     inkscape:current-layer="Layer_1" />
  <defs
     id="defs1">
    <style
       id="style1">.cls-1{fill:#cca8a2;}.cls-2{fill:#087993;}.cls-3{fill:#b8d544;}.cls-4{fill:#ced954;}.cls-5{fill:#ced955;}.cls-6{fill:#ceda55;}.cls-7{fill:#fdfefd;}.cls-8{fill:#fbfdf6;}.cls-9{font-size:10.81px;fill:#0b7993;font-family:Ebrima-Bold, Ebrima;font-weight:700;}</style>
  </defs>
  <title
     id="title1">LOGO new</title>
  <path
     class="cls-3"
     d="M 22.453594,150 H 0 V 0 H 60 V 150 H 35.187483 c 0.174735,-3.03564 0.458682,-6.04928 0.458682,-9.06291 0,-12.23054 0,-24.46107 0,-36.6696 0,-1.40783 -0.218421,-2.79367 -0.109209,-4.1795 a 6.2249712,6.2692476 0 0 1 0.895521,-2.683678 c 4.215507,-6.467223 8.49654,-12.890454 12.73389,-19.335681 0.32763,-0.505938 5.001819,-8.117025 5.329449,-8.798943 C 49.756101,75.230973 40.38588,87.813462 35.668008,93.466785 L 34.947222,93.15882 C 33.680385,80.796303 31.911183,62.098548 29.159089,49.978002 c 0.371314,9.59085 1.310522,25.538937 1.266836,35.195778 -0.04368,9.656841 -0.808154,19.22569 -1.616308,28.86054 C 20.640694,102.08975 12.712046,83.084031 7.9068063,69.709635 c 0.1747362,0.791904 1.7473587,7.237131 1.9220946,8.051034 0.1747361,0.813903 0.8299961,2.441706 1.0484161,3.343599 a 191.83833,193.20282 0 0 0 15.52968,41.992962 6.8147055,6.8631765 0 0 1 0.43684,4.79542 c -1.354204,6.79719 -2.642883,13.63836 -3.953403,20.45755 -0.06553,0.48394 -0.262104,1.03387 -0.43684,1.6498 z M 14.983615,85.613727 a 9.020748,9.0849099 0 0 0 8.540237,-11.196657 10.222058,10.294765 0 0 0 -8.409185,5.433348 28.809604,29.014518 0 0 0 -1.288678,4.597449 l 2.1842,-1.099869 c -0.43684,1.011879 -0.742628,1.649802 -1.026574,2.199735 0,0 -0.10921,0 -0.131052,0.109989 -0.02184,0.109986 0,0 0,0 z M 10.396794,65.816103 v 3.431586 c 5.394975,0.571932 9.413905,-2.199735 9.981798,-6.775185 a 9.020748,9.0849099 0 0 0 -8.736804,2.441706 8.0378577,8.0950287 0 0 1 -1.288678,0.923889 c 0.240262,-0.615927 0.43684,-1.231851 0.698944,-1.825779 A 9.80706,9.8768148 0 0 0 7.775754,51.627804 C 3.1234056,56.291244 2.9049855,62.274528 7.3607562,66.454026 l 0.196578,-2.969643 h 0.4368405 l 0.7426251,3.739551 z m 25.817262,-27.694677 0.283947,0.329961 -6.552602,8.644962 A 19.264648,19.401672 0 0 0 48.489264,24.945007 C 36.847476,25.648922 28.591197,33.743952 29.159089,44.522658 Z M 30.120138,33.523977 C 38.856939,24.725033 38.11431,12.824461 28.547513,5.2353717 20.313066,13.902332 20.072804,26.484822 27.892253,31.984161 l 0.917364,-11.174658 h 0.262104 z M 11.488896,22.965244 C 8.6057508,34.403871 14.546777,44.126706 27.018573,47.16234 l -5.045501,-9.018918 0.502364,-0.351957 5.853657,7.281126 C 29.836192,31.91817 21.230431,24.549054 11.488894,22.92125 Z m 42.744816,44.478662 a 7.0768095,7.1271447 0 0 0 -2.424465,-10.844697 7.2297036,7.2811263 0 0 0 1.528941,11.350638 v -3.343599 h 0.196578 z m -8.977065,19.555653 c 2.511831,3.84954 6.5526,4.729434 10.921002,2.463705 A 7.2078615,7.2591288 0 0 0 46.326906,86.07567 l 1.00473,0.725913 z"
     id="path3"
     style="stroke-width:2.19195" />
  <path
     class="cls-8"
     d="m 14.983615,85.613727 v 0.219972 c 0,0 0,0 0,0 0,0 0,0 0.131052,-0.109986 z"
     id="path11"
     style="stroke-width:2.19195" />
  <path
     class="cls-3"
     d="m 37.306158,37.593489 v -0.285966 h 0.262104 l -0.240264,0.241971 z"
     id="path14"
     style="stroke-width:2.19195" />
  <path
     class="cls-3"
     d="m 36.869316,37.967445 -0.371313,0.439947 -0.283947,-0.329961 0.458682,-0.285966 z"
     id="path15"
     style="stroke-width:2.19195" />
  <path
     class="cls-3"
     d="m 37.262472,37.549494 -0.393156,0.417951 -0.196578,-0.17598 0.63342,-0.197976 z"
     id="path16"
     style="stroke-width:2.19195" />
  <metadata
     id="metadata16">
    <rdf:RDF>
      <cc:Work
         rdf:about="">
        <dc:title>LOGO new</dc:title>
      </cc:Work>
    </rdf:RDF>
  </metadata>
</svg>
