<?xml version="1.0" encoding="UTF-8" standalone="no"?>
<svg
   height="48px"
   viewBox="0 -960 960 960"
   width="48px"
   fill="#e3e3e3"
   version="1.1"
   id="svg1"
   sodipodi:docname="team-add.svg"
   inkscape:version="1.4.3 (0d15f75, 2025-12-25)"
   inkscape:export-filename="team-add.webp"
   inkscape:export-xdpi="96"
   inkscape:export-ydpi="96"
   xmlns:inkscape="http://www.inkscape.org/namespaces/inkscape"
   xmlns:sodipodi="http://sodipodi.sourceforge.net/DTD/sodipodi-0.dtd"
   xmlns="http://www.w3.org/2000/svg"
   xmlns:svg="http://www.w3.org/2000/svg">
  <defs
     id="defs1" />
  <sodipodi:namedview
     id="namedview1"
     pagecolor="#ffffff"
     bordercolor="#000000"
     borderopacity="0.25"
     inkscape:showpageshadow="2"
     inkscape:pageopacity="0.0"
     inkscape:pagecheckerboard="0"
     inkscape:deskcolor="#d1d1d1"
     inkscape:zoom="11.313709"
     inkscape:cx="32.747881"
     inkscape:cy="20.727067"
     inkscape:window-width="1920"
     inkscape:window-height="1009"
     inkscape:window-x="-8"
     inkscape:window-y="-8"
     inkscape:window-maximized="1"
     inkscape:current-layer="svg1" />
  <rect
     style="fill:#c4bdce;fill-opacity:1;stroke-width:135.307"
     id="rect3"
     width="960"
     height="960"
     x="0"
     y="-960" />
  <path
     id="path2"
     style="display:inline;fill:#dfdbe5;fill-opacity:1;stroke-width:117.266"
     d="m 479.99667,-600 c -24.84445,0 -46.66232,7.94445 -65.44011,23.83333 -18.77778,15.88889 -30.48455,36.26232 -35.10676,61.10677 l -13,78 c -2.31112,11.55555 0.4604,21.93524 8.2604,31.1797 7.8,9.24443 17.7599,13.8802 29.89324,13.8802 H 556.2701 c 12.13334,0 22.09323,-4.63576 29.89323,-13.8802 7.8,-9.24445 10.53768,-19.62415 8.22657,-31.1797 l -13,-78 c -4.62222,-24.84445 -16.329,-45.21788 -35.10677,-61.10677 C 527.50535,-592.05555 505.41889,-600 479.99667,-600 Z m -257.5625,117.8802 c -4.33334,0 -8.40722,0.72223 -12.25521,2.16667 -3.85378,1.44446 -7.23351,3.30868 -10.1224,5.6198 l -2.47136,0.8802 c -8.75911,-1.73332 -13.40398,-2.60677 -13.98176,-2.60677 -10.08222,0 -18.52247,3.15747 -25.32292,9.51303 -6.80622,6.35555 -10.79497,14.45122 -11.95052,24.27343 l -1.72656,1.72657 c -4.62223,4.62221 -8.08212,9.40919 -10.39323,14.32031 -2.31111,4.91111 -2.82841,10.50463 -1.55729,16.82552 5.08444,11.59022 7.61718,17.70347 7.61718,18.28124 0.44534,2.03964 0.71042,3.12868 0.8125,3.28386 -1.71058,4.20131 -3.00031,8.58762 -3.85937,13.16927 -0.86667,4.62222 -0.76917,9.2365 0.27083,13.8125 2.6,10.67734 8.17781,18.54576 16.75781,23.63021 8.58001,5.08444 18.64237,7.35854 30.19793,6.83854 h 58.80468 c 12.56089,0 23.23804,-3.91851 32.02604,-11.74739 8.79378,-7.82889 13.16928,-16.92032 13.16928,-27.32032 0,-5.77778 -0.26858,-9.84252 -0.84636,-12.15364 -0.57779,-1.09778 -0.57779,-2.18031 0,-3.28386 2.88888,-9.35421 4.33333,-14.62048 4.33333,-15.77604 0,-4.57022 -1.00813,-9.02253 -3.01302,-13.33853 -1.99911,-4.316 -4.7533,-8.22792 -8.26042,-11.78126 -0.57778,-0.57778 -0.8802,-1.45122 -0.8802,-2.60677 1.15554,-3.02178 1.87778,-6.16932 2.16667,-9.44531 0.28888,-3.27022 -0.13091,-6.69374 -1.28647,-10.22396 -2.88888,-6.54622 -6.93631,-11.71498 -12.15364,-15.5052 -5.22312,-3.796 -11.31904,-5.92963 -18.28125,-6.4323 -0.49689,0 -0.86874,-0.11818 -1.11719,-0.3724 -0.24845,-0.25422 -0.6203,-0.40625 -1.11719,-0.40625 -2.48444,-3.536 -6.04184,-6.3059 -10.66406,-8.32812 -4.62222,-2.02222 -9.59761,-3.01303 -14.89583,-3.01303 z m 480.76301,13.84636 c -6.084,0 -10.58506,2.88889 -13.47395,8.66667 -2.88889,5.77778 -2.01545,10.98455 2.60677,15.60677 l 21.66667,19.0599 c -2.88889,4.62222 -5.35799,9.67778 -7.38021,15.16666 -2.02222,5.48889 -3.01303,11.29393 -3.01303,17.40104 0,16.78445 5.92899,31.14214 17.77344,43.09636 11.84446,11.95421 26.08812,17.94271 42.79167,17.94271 16.70356,0 31.03064,-5.92899 42.92709,-17.77344 11.89645,-11.84445 17.84114,-26.1542 17.84114,-42.92708 v -15.23438 c 0,-16.77289 -5.95545,-31.14791 -17.875,-43.09635 -11.91955,-11.94267 -26.25657,-17.90886 -42.99479,-17.90886 z M 479.99667,-366 c -61.82222,0 -111.95799,11.55555 -150.38021,34.66667 -38.42223,23.11111 -57.61979,53.44444 -57.61979,91 v 104.60937 a 416,416 0 0 0 208,55.72396 416,416 0 0 0 208,-55.72396 v -104.60937 c 0,-37.55556 -19.08022,-67.88889 -57.21354,-91 C 592.6498,-354.44445 542.39667,-366 479.99667,-366 Z m -285.66147,60.66667 c -30.09104,0 -55.83712,4.21243 -77.2552,12.66146 a 416,416 0 0 0 102.8151,121.33333 h 0.10157 v -68.99479 c 0,-11.47467 1.142,-22.28074 3.45313,-32.4323 2.31111,-10.15155 5.80486,-20.21969 10.42707,-30.19791 -6.35554,-0.99956 -12.78035,-1.64081 -19.26302,-1.92969 -6.48266,-0.28889 -13.25286,-0.4401 -20.27865,-0.4401 z m 571.66147,0 c -6.73689,0 -13.31706,0.15121 -19.77084,0.4401 -6.45378,0.28888 -12.87361,0.93014 -19.22916,1.92969 4.62222,9.97821 7.9309,20.04636 9.95313,30.19791 2.02221,10.15155 3.04687,20.95763 3.04687,32.4323 v 68.99479 h 0.10156 A 416,416 0 0 0 843.0826,-292.9427 c -21.12707,-8.26475 -46.83183,-12.39063 -77.08593,-12.39063 z" />
  <path
     d="m 737.5,-640 v -97.5 H 640 v -45 h 97.5 V -880 h 45 v 97.5 H 880 v 45 h -97.5 v 97.5 z"
     id="path1"
     style="fill:#dfdbe5;fill-opacity:1;stroke-width:0.75"
     sodipodi:nodetypes="ccccccccccccc" />
</svg>
